<mxfile host="app.diagrams.net" modified="2024-04-26T07:14:19.626Z" agent="Mozilla/5.0 (Macintosh; Intel Mac OS X 10_15_7) AppleWebKit/537.36 (KHTML, like Gecko) Chrome/124.0.0.0 Safari/537.36" etag="8baIvAqG2nK9Jrq2A7Ct" version="24.3.0" type="github" pages="2">
  <diagram name="第 1 页" id="Na53e1ivrenGZ3WMZQ6D">
    <mxGraphModel dx="1613" dy="-40" grid="0" gridSize="10" guides="1" tooltips="1" connect="1" arrows="1" fold="1" page="0" pageScale="1" pageWidth="827" pageHeight="1169" math="0" shadow="0">
      <root>
        <mxCell id="0" />
        <mxCell id="1" parent="0" />
        <mxCell id="m6HB10kPaZ1W_RpcMnGs-3" value="" style="rounded=0;whiteSpace=wrap;html=1;fillColor=none;strokeColor=#FF0080;shadow=1;" vertex="1" parent="1">
          <mxGeometry x="730" y="1017" width="120" height="720" as="geometry" />
        </mxCell>
        <mxCell id="m6HB10kPaZ1W_RpcMnGs-1" value="" style="rounded=0;whiteSpace=wrap;html=1;fillColor=none;strokeColor=#FF0080;shadow=1;" vertex="1" parent="1">
          <mxGeometry x="1354" y="1020.25" width="140" height="90" as="geometry" />
        </mxCell>
        <mxCell id="m6HB10kPaZ1W_RpcMnGs-2" value="" style="rounded=0;whiteSpace=wrap;html=1;fillColor=none;strokeColor=#FF0080;shadow=1;" vertex="1" parent="1">
          <mxGeometry x="962" y="1017" width="140" height="90" as="geometry" />
        </mxCell>
        <mxCell id="m6HB10kPaZ1W_RpcMnGs-5" style="edgeStyle=none;rounded=0;orthogonalLoop=1;jettySize=auto;html=1;exitX=0.5;exitY=1;exitDx=0;exitDy=0;strokeColor=#CC00CC;" edge="1" parent="1" source="m6HB10kPaZ1W_RpcMnGs-6" target="m6HB10kPaZ1W_RpcMnGs-69">
          <mxGeometry relative="1" as="geometry" />
        </mxCell>
        <mxCell id="m6HB10kPaZ1W_RpcMnGs-6" value="Put items into tote" style="whiteSpace=wrap;html=1;rounded=1;shadow=0;dashed=0;fontColor=#ffffff;strokeColor=#314354;fillColor=#647687;fontSize=14;" vertex="1" parent="1">
          <mxGeometry x="973" y="1464" width="125" height="50" as="geometry" />
        </mxCell>
        <mxCell id="m6HB10kPaZ1W_RpcMnGs-7" style="rounded=0;orthogonalLoop=1;jettySize=auto;html=1;dashed=1;strokeColor=#CC00CC;fontColor=#ffffff;entryX=0.012;entryY=0.003;entryDx=0;entryDy=0;entryPerimeter=0;exitX=0;exitY=1;exitDx=0;exitDy=0;" edge="1" parent="1" source="m6HB10kPaZ1W_RpcMnGs-9" target="m6HB10kPaZ1W_RpcMnGs-13">
          <mxGeometry relative="1" as="geometry">
            <mxPoint x="224" y="1060.9999999999998" as="targetPoint" />
            <mxPoint x="369" y="1025.7499999999998" as="sourcePoint" />
            <Array as="points" />
          </mxGeometry>
        </mxCell>
        <mxCell id="m6HB10kPaZ1W_RpcMnGs-127" style="edgeStyle=orthogonalEdgeStyle;rounded=0;orthogonalLoop=1;jettySize=auto;html=1;exitX=1;exitY=0.5;exitDx=0;exitDy=0;strokeColor=#CC00CC;" edge="1" parent="1">
          <mxGeometry relative="1" as="geometry">
            <mxPoint x="1547" y="989.3076923076922" as="targetPoint" />
            <mxPoint x="1517" y="988.75" as="sourcePoint" />
          </mxGeometry>
        </mxCell>
        <mxCell id="m6HB10kPaZ1W_RpcMnGs-9" value="Picking - Quota Constrained Activity" style="whiteSpace=wrap;html=1;rounded=1;fontColor=#ffffff;strokeColor=#314354;fillColor=#CC0000;fontSize=16;" vertex="1" parent="1">
          <mxGeometry x="400" y="963.75" width="1120" height="50" as="geometry" />
        </mxCell>
        <mxCell id="m6HB10kPaZ1W_RpcMnGs-10" style="edgeStyle=none;rounded=0;orthogonalLoop=1;jettySize=auto;html=1;exitX=1;exitY=0.5;exitDx=0;exitDy=0;strokeColor=#CC00CC;" edge="1" parent="1" source="m6HB10kPaZ1W_RpcMnGs-11" target="m6HB10kPaZ1W_RpcMnGs-63">
          <mxGeometry relative="1" as="geometry" />
        </mxCell>
        <mxCell id="m6HB10kPaZ1W_RpcMnGs-11" value="Travel to Aisle 1" style="whiteSpace=wrap;html=1;rounded=1;shadow=0;dashed=0;fillColor=#0000FF;strokeColor=#314354;fontColor=#ffffff;fontSize=14;" vertex="1" parent="1">
          <mxGeometry x="742" y="1048.5" width="105" height="50" as="geometry" />
        </mxCell>
        <mxCell id="m6HB10kPaZ1W_RpcMnGs-123" style="edgeStyle=orthogonalEdgeStyle;rounded=0;orthogonalLoop=1;jettySize=auto;html=1;exitX=0.5;exitY=1;exitDx=0;exitDy=0;strokeColor=#CC00CC;" edge="1" parent="1" source="m6HB10kPaZ1W_RpcMnGs-12" target="m6HB10kPaZ1W_RpcMnGs-96">
          <mxGeometry relative="1" as="geometry" />
        </mxCell>
        <mxCell id="m6HB10kPaZ1W_RpcMnGs-12" value="Move totes to the drop-off point" style="whiteSpace=wrap;html=1;rounded=1;shadow=0;dashed=0;fontColor=#ffffff;strokeColor=#314354;fillColor=#647687;fontSize=14;" vertex="1" parent="1">
          <mxGeometry x="973" y="1753.5" width="125" height="50" as="geometry" />
        </mxCell>
        <mxCell id="m6HB10kPaZ1W_RpcMnGs-13" value="Picking task" style="shape=step;perimeter=stepPerimeter;whiteSpace=wrap;html=1;fixedSize=1;size=10;fillColor=#B3B3B3;strokeColor=none;fontColor=#FFFFFF;fontSize=14;" vertex="1" parent="1">
          <mxGeometry x="400" y="1061" width="98" height="25" as="geometry" />
        </mxCell>
        <mxCell id="m6HB10kPaZ1W_RpcMnGs-14" value="Picker" style="rounded=1;whiteSpace=wrap;html=1;labelBackgroundColor=none;fontSize=15;fillColor=#FF8000;fontColor=#FFFFFF;strokeColor=none;verticalAlign=middle;spacing=0;" vertex="1" parent="1">
          <mxGeometry x="400" y="939.9999999999999" width="48" height="19" as="geometry" />
        </mxCell>
        <mxCell id="m6HB10kPaZ1W_RpcMnGs-15" value="Trolley" style="rounded=1;whiteSpace=wrap;html=1;labelBackgroundColor=none;fontSize=15;fillColor=#FF8000;fontColor=#FFFFFF;strokeColor=none;verticalAlign=middle;spacing=0;" vertex="1" parent="1">
          <mxGeometry x="452" y="939.9999999999999" width="48" height="19" as="geometry" />
        </mxCell>
        <mxCell id="m6HB10kPaZ1W_RpcMnGs-16" value="Tote" style="rounded=1;whiteSpace=wrap;html=1;labelBackgroundColor=none;fontSize=15;fillColor=#FF8000;fontColor=#FFFFFF;strokeColor=none;verticalAlign=middle;spacing=0;" vertex="1" parent="1">
          <mxGeometry x="503" y="939.9999999999999" width="48" height="19" as="geometry" />
        </mxCell>
        <mxCell id="m6HB10kPaZ1W_RpcMnGs-17" style="edgeStyle=none;rounded=1;orthogonalLoop=1;jettySize=auto;html=1;exitX=1;exitY=0.5;exitDx=0;exitDy=0;entryX=0;entryY=0.5;entryDx=0;entryDy=0;entryPerimeter=0;strokeColor=#CC00CC;" edge="1" parent="1" source="m6HB10kPaZ1W_RpcMnGs-18" target="m6HB10kPaZ1W_RpcMnGs-20">
          <mxGeometry relative="1" as="geometry">
            <mxPoint x="1567" y="1076.7500000000002" as="sourcePoint" />
          </mxGeometry>
        </mxCell>
        <mxCell id="m6HB10kPaZ1W_RpcMnGs-18" value="Terminating for True" style="whiteSpace=wrap;html=1;rounded=1;shadow=0;dashed=0;fontColor=#ffffff;strokeColor=#314354;fillColor=#647687;fontSize=14;" vertex="1" parent="1">
          <mxGeometry x="1510.5" y="1051.75" width="75" height="50" as="geometry" />
        </mxCell>
        <mxCell id="m6HB10kPaZ1W_RpcMnGs-19" style="edgeStyle=elbowEdgeStyle;rounded=0;orthogonalLoop=1;jettySize=auto;html=1;strokeColor=#CC00CC;fontColor=#ffffff;dashed=1;" edge="1" parent="1">
          <mxGeometry relative="1" as="geometry">
            <mxPoint x="1516" y="1017.2499999999995" as="targetPoint" />
            <Array as="points" />
            <mxPoint x="1516" y="1051.75" as="sourcePoint" />
          </mxGeometry>
        </mxCell>
        <mxCell id="m6HB10kPaZ1W_RpcMnGs-20" value="Picking task" style="strokeWidth=2;html=1;shape=mxgraph.flowchart.terminator;whiteSpace=wrap;fillColor=#B3B3B3;fontColor=#FFFFFF;strokeColor=none;fontSize=14;" vertex="1" parent="1">
          <mxGeometry x="1605" y="1062.75" width="91" height="28" as="geometry" />
        </mxCell>
        <mxCell id="m6HB10kPaZ1W_RpcMnGs-21" value="Buffer" style="whiteSpace=wrap;html=1;rounded=1;shadow=0;dashed=0;fontColor=#ffffff;strokeColor=#314354;fillColor=#647687;fontSize=14;" vertex="1" parent="1">
          <mxGeometry x="523" y="1048.5" width="70" height="50" as="geometry" />
        </mxCell>
        <mxCell id="m6HB10kPaZ1W_RpcMnGs-22" value="" style="endArrow=classic;html=1;strokeColor=#CC00CC;exitX=1;exitY=0.5;exitDx=0;exitDy=0;entryX=0;entryY=0.5;entryDx=0;entryDy=0;" edge="1" parent="1" source="m6HB10kPaZ1W_RpcMnGs-13" target="m6HB10kPaZ1W_RpcMnGs-21">
          <mxGeometry width="50" height="50" relative="1" as="geometry">
            <mxPoint x="618" y="1218.2499999999998" as="sourcePoint" />
            <mxPoint x="668" y="1168.2499999999998" as="targetPoint" />
          </mxGeometry>
        </mxCell>
        <mxCell id="m6HB10kPaZ1W_RpcMnGs-23" value="Travel to Aisle 2" style="whiteSpace=wrap;html=1;rounded=1;shadow=0;dashed=0;fillColor=#0000FF;strokeColor=#314354;fontColor=#ffffff;fontSize=14;" vertex="1" parent="1">
          <mxGeometry x="742" y="1138.2499999999998" width="105" height="50" as="geometry" />
        </mxCell>
        <mxCell id="m6HB10kPaZ1W_RpcMnGs-24" value="" style="edgeStyle=elbowEdgeStyle;rounded=0;orthogonalLoop=1;jettySize=auto;html=1;strokeColor=#CC00CC;fontColor=#ffffff;exitX=1;exitY=0.5;exitDx=0;exitDy=0;entryX=0;entryY=0.5;entryDx=0;entryDy=0;" edge="1" parent="1" source="m6HB10kPaZ1W_RpcMnGs-21" target="m6HB10kPaZ1W_RpcMnGs-11">
          <mxGeometry relative="1" as="geometry">
            <mxPoint x="884" y="1081.9999999999998" as="sourcePoint" />
            <mxPoint x="722.0000000000005" y="1073" as="targetPoint" />
          </mxGeometry>
        </mxCell>
        <mxCell id="m6HB10kPaZ1W_RpcMnGs-25" value="Space_Aisle 1" style="rounded=1;whiteSpace=wrap;html=1;labelBackgroundColor=none;fontSize=11;fillColor=#FF8000;fontColor=#FFFFFF;strokeColor=none;verticalAlign=middle;spacing=0;" vertex="1" parent="1">
          <mxGeometry x="742" y="1023.9999999999998" width="75" height="19" as="geometry" />
        </mxCell>
        <mxCell id="m6HB10kPaZ1W_RpcMnGs-26" value="Space_Aisle 2" style="rounded=1;whiteSpace=wrap;html=1;labelBackgroundColor=none;fontSize=11;fillColor=#FF8000;fontColor=#FFFFFF;strokeColor=none;verticalAlign=middle;spacing=0;" vertex="1" parent="1">
          <mxGeometry x="742" y="1115.4999999999998" width="75" height="19" as="geometry" />
        </mxCell>
        <mxCell id="m6HB10kPaZ1W_RpcMnGs-27" value="" style="rounded=0;orthogonalLoop=1;jettySize=auto;html=1;fontColor=#ffffff;strokeColor=#CC00CC;entryX=0;entryY=0.5;entryDx=0;entryDy=0;" edge="1" parent="1" target="m6HB10kPaZ1W_RpcMnGs-9">
          <mxGeometry relative="1" as="geometry">
            <mxPoint x="380" y="989" as="sourcePoint" />
            <mxPoint x="412" y="1000.7499999999998" as="targetPoint" />
          </mxGeometry>
        </mxCell>
        <mxCell id="m6HB10kPaZ1W_RpcMnGs-28" value="Travel to Aisle 3" style="whiteSpace=wrap;html=1;rounded=1;shadow=0;dashed=0;fillColor=#0000FF;strokeColor=#314354;fontColor=#ffffff;fontSize=14;" vertex="1" parent="1">
          <mxGeometry x="742" y="1226.9999999999998" width="105" height="50" as="geometry" />
        </mxCell>
        <mxCell id="m6HB10kPaZ1W_RpcMnGs-29" value="Space_Aisle 3" style="rounded=1;whiteSpace=wrap;html=1;labelBackgroundColor=none;fontSize=11;fillColor=#FF8000;fontColor=#FFFFFF;strokeColor=none;verticalAlign=middle;spacing=0;" vertex="1" parent="1">
          <mxGeometry x="742" y="1203.9999999999998" width="75" height="19" as="geometry" />
        </mxCell>
        <mxCell id="m6HB10kPaZ1W_RpcMnGs-30" value="Travel to Aisle 4" style="whiteSpace=wrap;html=1;rounded=1;shadow=0;dashed=0;fillColor=#0000FF;strokeColor=#314354;fontColor=#ffffff;fontSize=14;" vertex="1" parent="1">
          <mxGeometry x="742" y="1313.2499999999998" width="105" height="50" as="geometry" />
        </mxCell>
        <mxCell id="m6HB10kPaZ1W_RpcMnGs-31" value="Space_Aisle 4" style="rounded=1;whiteSpace=wrap;html=1;labelBackgroundColor=none;fontSize=11;fillColor=#FF8000;fontColor=#FFFFFF;strokeColor=none;verticalAlign=middle;spacing=0;" vertex="1" parent="1">
          <mxGeometry x="742" y="1291.2499999999998" width="75" height="19" as="geometry" />
        </mxCell>
        <mxCell id="m6HB10kPaZ1W_RpcMnGs-32" value="Travel to Aisle 5" style="whiteSpace=wrap;html=1;rounded=1;shadow=0;dashed=0;fillColor=#0000FF;strokeColor=#314354;fontColor=#ffffff;fontSize=14;" vertex="1" parent="1">
          <mxGeometry x="742" y="1403.2499999999998" width="105" height="50" as="geometry" />
        </mxCell>
        <mxCell id="m6HB10kPaZ1W_RpcMnGs-33" value="Space_Aisle 5" style="rounded=1;whiteSpace=wrap;html=1;labelBackgroundColor=none;fontSize=11;fillColor=#FF8000;fontColor=#FFFFFF;strokeColor=none;verticalAlign=middle;spacing=0;" vertex="1" parent="1">
          <mxGeometry x="742" y="1380.2499999999998" width="75" height="19" as="geometry" />
        </mxCell>
        <mxCell id="m6HB10kPaZ1W_RpcMnGs-34" value="Travel to Aisle 6" style="whiteSpace=wrap;html=1;rounded=1;shadow=0;dashed=0;fillColor=#0000FF;strokeColor=#314354;fontColor=#ffffff;fontSize=14;" vertex="1" parent="1">
          <mxGeometry x="742" y="1493.2499999999998" width="105" height="50" as="geometry" />
        </mxCell>
        <mxCell id="m6HB10kPaZ1W_RpcMnGs-35" value="Space_Aisle 6" style="rounded=1;whiteSpace=wrap;html=1;labelBackgroundColor=none;fontSize=11;fillColor=#FF8000;fontColor=#FFFFFF;strokeColor=none;verticalAlign=middle;spacing=0;" vertex="1" parent="1">
          <mxGeometry x="742" y="1471.2499999999998" width="75" height="19" as="geometry" />
        </mxCell>
        <mxCell id="m6HB10kPaZ1W_RpcMnGs-36" value="Travel to Aisle 7" style="whiteSpace=wrap;html=1;rounded=1;shadow=0;dashed=0;fillColor=#0000FF;strokeColor=#314354;fontColor=#ffffff;fontSize=14;" vertex="1" parent="1">
          <mxGeometry x="742" y="1583.2499999999998" width="105" height="50" as="geometry" />
        </mxCell>
        <mxCell id="m6HB10kPaZ1W_RpcMnGs-37" value="Space_Aisle 7" style="rounded=1;whiteSpace=wrap;html=1;labelBackgroundColor=none;fontSize=11;fillColor=#FF8000;fontColor=#FFFFFF;strokeColor=none;verticalAlign=middle;spacing=0;" vertex="1" parent="1">
          <mxGeometry x="742" y="1560.2499999999998" width="75" height="19" as="geometry" />
        </mxCell>
        <mxCell id="m6HB10kPaZ1W_RpcMnGs-38" value="Travel to Aisle 8" style="whiteSpace=wrap;html=1;rounded=1;shadow=0;dashed=0;fillColor=#0000FF;strokeColor=#314354;fontColor=#ffffff;fontSize=14;" vertex="1" parent="1">
          <mxGeometry x="742" y="1673.2499999999998" width="105" height="50" as="geometry" />
        </mxCell>
        <mxCell id="m6HB10kPaZ1W_RpcMnGs-39" value="Space_Aisle 8" style="rounded=1;whiteSpace=wrap;html=1;labelBackgroundColor=none;fontSize=11;fillColor=#FF8000;fontColor=#FFFFFF;strokeColor=none;verticalAlign=middle;spacing=0;" vertex="1" parent="1">
          <mxGeometry x="742" y="1651.2499999999998" width="75" height="19" as="geometry" />
        </mxCell>
        <mxCell id="m6HB10kPaZ1W_RpcMnGs-40" value="" style="endArrow=classic;html=1;exitX=1;exitY=0.5;exitDx=0;exitDy=0;entryX=0;entryY=0.5;entryDx=0;entryDy=0;strokeColor=#CC00CC;" edge="1" parent="1" source="m6HB10kPaZ1W_RpcMnGs-21" target="m6HB10kPaZ1W_RpcMnGs-23">
          <mxGeometry width="50" height="50" relative="1" as="geometry">
            <mxPoint x="1018" y="1328.2499999999998" as="sourcePoint" />
            <mxPoint x="1068" y="1278.2499999999998" as="targetPoint" />
            <Array as="points">
              <mxPoint x="658" y="1163.2499999999998" />
            </Array>
          </mxGeometry>
        </mxCell>
        <mxCell id="m6HB10kPaZ1W_RpcMnGs-41" value="&lt;span style=&quot;font-size: 12px; text-align: left; background-color: rgb(248, 249, 250);&quot;&gt;Pickingtask&lt;/span&gt;&lt;span style=&quot;font-size: 12px ; text-align: left ; background-color: rgb(248 , 249 , 250)&quot;&gt;.aisle = 2&lt;/span&gt;" style="edgeLabel;html=1;align=center;verticalAlign=middle;resizable=0;points=[];" vertex="1" connectable="0" parent="m6HB10kPaZ1W_RpcMnGs-40">
          <mxGeometry x="-0.0273" relative="1" as="geometry">
            <mxPoint x="15" as="offset" />
          </mxGeometry>
        </mxCell>
        <mxCell id="m6HB10kPaZ1W_RpcMnGs-42" value="" style="endArrow=classic;html=1;exitX=1;exitY=0.5;exitDx=0;exitDy=0;entryX=0;entryY=0.5;entryDx=0;entryDy=0;strokeColor=#CC00CC;" edge="1" parent="1" source="m6HB10kPaZ1W_RpcMnGs-21" target="m6HB10kPaZ1W_RpcMnGs-28">
          <mxGeometry width="50" height="50" relative="1" as="geometry">
            <mxPoint x="582" y="1083.4999999999998" as="sourcePoint" />
            <mxPoint x="748" y="1173.2499999999995" as="targetPoint" />
            <Array as="points">
              <mxPoint x="668" y="1252.2499999999998" />
            </Array>
          </mxGeometry>
        </mxCell>
        <mxCell id="m6HB10kPaZ1W_RpcMnGs-43" value="&lt;span style=&quot;font-size: 12px; text-align: left; background-color: rgb(248, 249, 250);&quot;&gt;Pickingtask&lt;/span&gt;&lt;span style=&quot;font-size: 12px ; text-align: left ; background-color: rgb(248 , 249 , 250)&quot;&gt;.aisle = 3&lt;/span&gt;" style="edgeLabel;html=1;align=center;verticalAlign=middle;resizable=0;points=[];" vertex="1" connectable="0" parent="m6HB10kPaZ1W_RpcMnGs-42">
          <mxGeometry x="0.2819" y="-1" relative="1" as="geometry">
            <mxPoint x="3" as="offset" />
          </mxGeometry>
        </mxCell>
        <mxCell id="m6HB10kPaZ1W_RpcMnGs-44" value="" style="endArrow=classic;html=1;exitX=1;exitY=0.5;exitDx=0;exitDy=0;entryX=0;entryY=0.5;entryDx=0;entryDy=0;strokeColor=#CC00CC;" edge="1" parent="1" source="m6HB10kPaZ1W_RpcMnGs-21" target="m6HB10kPaZ1W_RpcMnGs-30">
          <mxGeometry width="50" height="50" relative="1" as="geometry">
            <mxPoint x="582" y="1083.4999999999998" as="sourcePoint" />
            <mxPoint x="748" y="1261.9999999999995" as="targetPoint" />
            <Array as="points">
              <mxPoint x="668" y="1338.2499999999998" />
            </Array>
          </mxGeometry>
        </mxCell>
        <mxCell id="m6HB10kPaZ1W_RpcMnGs-45" value="&lt;span style=&quot;font-size: 12px; text-align: left; background-color: rgb(248, 249, 250);&quot;&gt;Pickingtask&lt;/span&gt;&lt;span style=&quot;font-size: 12px ; text-align: left ; background-color: rgb(248 , 249 , 250)&quot;&gt;.aisle = 4&lt;/span&gt;" style="edgeLabel;html=1;align=center;verticalAlign=middle;resizable=0;points=[];" vertex="1" connectable="0" parent="m6HB10kPaZ1W_RpcMnGs-44">
          <mxGeometry x="0.4455" y="-2" relative="1" as="geometry">
            <mxPoint as="offset" />
          </mxGeometry>
        </mxCell>
        <mxCell id="m6HB10kPaZ1W_RpcMnGs-46" value="" style="endArrow=classic;html=1;exitX=1;exitY=0.5;exitDx=0;exitDy=0;entryX=0;entryY=0.5;entryDx=0;entryDy=0;strokeColor=#CC00CC;" edge="1" parent="1" source="m6HB10kPaZ1W_RpcMnGs-21" target="m6HB10kPaZ1W_RpcMnGs-32">
          <mxGeometry width="50" height="50" relative="1" as="geometry">
            <mxPoint x="582" y="1083.4999999999998" as="sourcePoint" />
            <mxPoint x="748" y="1348.2499999999998" as="targetPoint" />
            <Array as="points">
              <mxPoint x="668" y="1428.2499999999998" />
            </Array>
          </mxGeometry>
        </mxCell>
        <mxCell id="m6HB10kPaZ1W_RpcMnGs-47" value="&lt;span style=&quot;font-size: 12px; text-align: left; background-color: rgb(248, 249, 250);&quot;&gt;Pickingtask&lt;/span&gt;&lt;span style=&quot;font-size: 12px ; text-align: left ; background-color: rgb(248 , 249 , 250)&quot;&gt;.aisle = 5&lt;/span&gt;" style="edgeLabel;html=1;align=center;verticalAlign=middle;resizable=0;points=[];" vertex="1" connectable="0" parent="m6HB10kPaZ1W_RpcMnGs-46">
          <mxGeometry x="0.4893" relative="1" as="geometry">
            <mxPoint as="offset" />
          </mxGeometry>
        </mxCell>
        <mxCell id="m6HB10kPaZ1W_RpcMnGs-48" value="" style="endArrow=classic;html=1;exitX=1;exitY=0.5;exitDx=0;exitDy=0;entryX=0;entryY=0.5;entryDx=0;entryDy=0;strokeColor=#CC00CC;" edge="1" parent="1" source="m6HB10kPaZ1W_RpcMnGs-21" target="m6HB10kPaZ1W_RpcMnGs-34">
          <mxGeometry width="50" height="50" relative="1" as="geometry">
            <mxPoint x="582" y="1083.4999999999998" as="sourcePoint" />
            <mxPoint x="748" y="1438.2499999999998" as="targetPoint" />
            <Array as="points">
              <mxPoint x="668" y="1518.2499999999998" />
            </Array>
          </mxGeometry>
        </mxCell>
        <mxCell id="m6HB10kPaZ1W_RpcMnGs-49" value="&lt;span style=&quot;font-size: 12px; text-align: left; background-color: rgb(248, 249, 250);&quot;&gt;Pickingtask&lt;/span&gt;&lt;span style=&quot;font-size: 12px ; text-align: left ; background-color: rgb(248 , 249 , 250)&quot;&gt;.aisle = 6&lt;/span&gt;" style="edgeLabel;html=1;align=center;verticalAlign=middle;resizable=0;points=[];" vertex="1" connectable="0" parent="m6HB10kPaZ1W_RpcMnGs-48">
          <mxGeometry x="0.6291" y="-2" relative="1" as="geometry">
            <mxPoint x="-1" y="2" as="offset" />
          </mxGeometry>
        </mxCell>
        <mxCell id="m6HB10kPaZ1W_RpcMnGs-50" value="" style="endArrow=classic;html=1;exitX=1;exitY=0.5;exitDx=0;exitDy=0;entryX=0;entryY=0.5;entryDx=0;entryDy=0;strokeColor=#CC00CC;" edge="1" parent="1" source="m6HB10kPaZ1W_RpcMnGs-21" target="m6HB10kPaZ1W_RpcMnGs-36">
          <mxGeometry width="50" height="50" relative="1" as="geometry">
            <mxPoint x="582" y="1083.4999999999998" as="sourcePoint" />
            <mxPoint x="748" y="1528.2499999999998" as="targetPoint" />
            <Array as="points">
              <mxPoint x="668" y="1608.2499999999998" />
            </Array>
          </mxGeometry>
        </mxCell>
        <mxCell id="m6HB10kPaZ1W_RpcMnGs-51" value="&lt;span style=&quot;font-size: 12px; text-align: left; background-color: rgb(248, 249, 250);&quot;&gt;Pickingtask&lt;/span&gt;&lt;span style=&quot;font-size: 12px ; text-align: left ; background-color: rgb(248 , 249 , 250)&quot;&gt;.aisle = 7&lt;/span&gt;" style="edgeLabel;html=1;align=center;verticalAlign=middle;resizable=0;points=[];" vertex="1" connectable="0" parent="m6HB10kPaZ1W_RpcMnGs-50">
          <mxGeometry x="0.6986" y="1" relative="1" as="geometry">
            <mxPoint x="-6" y="-3" as="offset" />
          </mxGeometry>
        </mxCell>
        <mxCell id="m6HB10kPaZ1W_RpcMnGs-52" value="" style="endArrow=classic;html=1;exitX=1;exitY=0.5;exitDx=0;exitDy=0;entryX=0;entryY=0.5;entryDx=0;entryDy=0;strokeColor=#CC00CC;" edge="1" parent="1" source="m6HB10kPaZ1W_RpcMnGs-21" target="m6HB10kPaZ1W_RpcMnGs-38">
          <mxGeometry width="50" height="50" relative="1" as="geometry">
            <mxPoint x="582" y="1083.4999999999998" as="sourcePoint" />
            <mxPoint x="748" y="1618.2499999999998" as="targetPoint" />
            <Array as="points">
              <mxPoint x="668" y="1698.2499999999998" />
            </Array>
          </mxGeometry>
        </mxCell>
        <mxCell id="m6HB10kPaZ1W_RpcMnGs-53" value="&lt;span style=&quot;font-size: 12px; text-align: left; background-color: rgb(248, 249, 250);&quot;&gt;Pickingtask&lt;/span&gt;&lt;span style=&quot;font-size: 12px ; text-align: left ; background-color: rgb(248 , 249 , 250)&quot;&gt;.aisle = 8&lt;/span&gt;" style="edgeLabel;html=1;align=center;verticalAlign=middle;resizable=0;points=[];" vertex="1" connectable="0" parent="m6HB10kPaZ1W_RpcMnGs-52">
          <mxGeometry x="0.7668" y="-3" relative="1" as="geometry">
            <mxPoint x="-4" y="-17" as="offset" />
          </mxGeometry>
        </mxCell>
        <mxCell id="m6HB10kPaZ1W_RpcMnGs-54" value="Pickingtask.aisle = 1" style="text;whiteSpace=wrap;html=1;" vertex="1" parent="1">
          <mxGeometry x="603.5" y="1051.2499999999998" width="138.5" height="28" as="geometry" />
        </mxCell>
        <mxCell id="m6HB10kPaZ1W_RpcMnGs-55" value="" style="endArrow=classic;html=1;strokeColor=#CC00CC;exitX=1;exitY=0.5;exitDx=0;exitDy=0;entryX=0;entryY=0.5;entryDx=0;entryDy=0;" edge="1" parent="1" source="m6HB10kPaZ1W_RpcMnGs-23" target="m6HB10kPaZ1W_RpcMnGs-63">
          <mxGeometry width="50" height="50" relative="1" as="geometry">
            <mxPoint x="868" y="1478.2499999999998" as="sourcePoint" />
            <mxPoint x="1048" y="1088.2499999999998" as="targetPoint" />
            <Array as="points">
              <mxPoint x="860" y="1163" />
            </Array>
          </mxGeometry>
        </mxCell>
        <mxCell id="m6HB10kPaZ1W_RpcMnGs-56" value="" style="endArrow=classic;html=1;strokeColor=#CC00CC;exitX=1;exitY=0.5;exitDx=0;exitDy=0;entryX=0;entryY=0.5;entryDx=0;entryDy=0;" edge="1" parent="1" source="m6HB10kPaZ1W_RpcMnGs-28" target="m6HB10kPaZ1W_RpcMnGs-63">
          <mxGeometry width="50" height="50" relative="1" as="geometry">
            <mxPoint x="883.9999999999995" y="1173.2499999999995" as="sourcePoint" />
            <mxPoint x="1068" y="1108.2499999999998" as="targetPoint" />
            <Array as="points">
              <mxPoint x="860" y="1252" />
            </Array>
          </mxGeometry>
        </mxCell>
        <mxCell id="m6HB10kPaZ1W_RpcMnGs-57" value="" style="endArrow=classic;html=1;strokeColor=#CC00CC;exitX=1;exitY=0.5;exitDx=0;exitDy=0;entryX=0;entryY=0.5;entryDx=0;entryDy=0;entryPerimeter=0;" edge="1" parent="1" source="m6HB10kPaZ1W_RpcMnGs-30" target="m6HB10kPaZ1W_RpcMnGs-63">
          <mxGeometry width="50" height="50" relative="1" as="geometry">
            <mxPoint x="883.9999999999995" y="1261.9999999999995" as="sourcePoint" />
            <mxPoint x="1068" y="1098.2499999999998" as="targetPoint" />
            <Array as="points">
              <mxPoint x="860" y="1338" />
            </Array>
          </mxGeometry>
        </mxCell>
        <mxCell id="m6HB10kPaZ1W_RpcMnGs-58" value="" style="endArrow=classic;html=1;strokeColor=#CC00CC;exitX=1;exitY=0.5;exitDx=0;exitDy=0;entryX=0;entryY=0.5;entryDx=0;entryDy=0;" edge="1" parent="1" source="m6HB10kPaZ1W_RpcMnGs-32" target="m6HB10kPaZ1W_RpcMnGs-63">
          <mxGeometry width="50" height="50" relative="1" as="geometry">
            <mxPoint x="883.9999999999995" y="1348.2499999999995" as="sourcePoint" />
            <mxPoint x="1068" y="1094.2499999999998" as="targetPoint" />
            <Array as="points">
              <mxPoint x="860" y="1430" />
            </Array>
          </mxGeometry>
        </mxCell>
        <mxCell id="m6HB10kPaZ1W_RpcMnGs-59" value="" style="endArrow=classic;html=1;strokeColor=#CC00CC;exitX=1;exitY=0.5;exitDx=0;exitDy=0;entryX=0;entryY=0.5;entryDx=0;entryDy=0;" edge="1" parent="1" source="m6HB10kPaZ1W_RpcMnGs-34" target="m6HB10kPaZ1W_RpcMnGs-63">
          <mxGeometry width="50" height="50" relative="1" as="geometry">
            <mxPoint x="883.9999999999995" y="1438.2499999999998" as="sourcePoint" />
            <mxPoint x="1068" y="1098.2499999999998" as="targetPoint" />
            <Array as="points">
              <mxPoint x="860" y="1518" />
            </Array>
          </mxGeometry>
        </mxCell>
        <mxCell id="m6HB10kPaZ1W_RpcMnGs-60" value="" style="endArrow=classic;html=1;strokeColor=#CC00CC;exitX=1;exitY=0.5;exitDx=0;exitDy=0;entryX=0;entryY=0.5;entryDx=0;entryDy=0;" edge="1" parent="1" source="m6HB10kPaZ1W_RpcMnGs-36" target="m6HB10kPaZ1W_RpcMnGs-63">
          <mxGeometry width="50" height="50" relative="1" as="geometry">
            <mxPoint x="883.9999999999995" y="1528.2499999999998" as="sourcePoint" />
            <mxPoint x="1083" y="1094.2499999999998" as="targetPoint" />
            <Array as="points">
              <mxPoint x="860" y="1608" />
            </Array>
          </mxGeometry>
        </mxCell>
        <mxCell id="m6HB10kPaZ1W_RpcMnGs-61" value="" style="endArrow=classic;html=1;strokeColor=#CC00CC;exitX=1;exitY=0.5;exitDx=0;exitDy=0;entryX=0;entryY=0.5;entryDx=0;entryDy=0;" edge="1" parent="1" source="m6HB10kPaZ1W_RpcMnGs-38" target="m6HB10kPaZ1W_RpcMnGs-63">
          <mxGeometry width="50" height="50" relative="1" as="geometry">
            <mxPoint x="883.9999999999995" y="1618.2499999999998" as="sourcePoint" />
            <mxPoint x="1078" y="1098.2499999999998" as="targetPoint" />
            <Array as="points">
              <mxPoint x="860" y="1698" />
            </Array>
          </mxGeometry>
        </mxCell>
        <mxCell id="m6HB10kPaZ1W_RpcMnGs-62" style="edgeStyle=none;rounded=0;orthogonalLoop=1;jettySize=auto;html=1;exitX=1;exitY=0.5;exitDx=0;exitDy=0;strokeColor=#CC00CC;" edge="1" parent="1" source="m6HB10kPaZ1W_RpcMnGs-63" target="m6HB10kPaZ1W_RpcMnGs-99">
          <mxGeometry relative="1" as="geometry" />
        </mxCell>
        <mxCell id="m6HB10kPaZ1W_RpcMnGs-63" value="Buffer - 2nd" style="whiteSpace=wrap;html=1;rounded=1;shadow=0;dashed=0;fontColor=#ffffff;strokeColor=#314354;fillColor=#647687;fontSize=14;" vertex="1" parent="1">
          <mxGeometry x="879" y="1048.5" width="75" height="50" as="geometry" />
        </mxCell>
        <mxCell id="m6HB10kPaZ1W_RpcMnGs-64" style="edgeStyle=none;rounded=0;orthogonalLoop=1;jettySize=auto;html=1;exitX=0.5;exitY=1;exitDx=0;exitDy=0;strokeColor=#CC00CC;" edge="1" parent="1" source="m6HB10kPaZ1W_RpcMnGs-65" target="m6HB10kPaZ1W_RpcMnGs-75">
          <mxGeometry relative="1" as="geometry" />
        </mxCell>
        <mxCell id="m6HB10kPaZ1W_RpcMnGs-65" value="Scan the location barcode at the destination location" style="whiteSpace=wrap;html=1;rounded=1;shadow=0;dashed=0;fontColor=#ffffff;strokeColor=#314354;fillColor=#647687;fontSize=14;" vertex="1" parent="1">
          <mxGeometry x="973" y="1256" width="125" height="50" as="geometry" />
        </mxCell>
        <mxCell id="m6HB10kPaZ1W_RpcMnGs-121" style="edgeStyle=orthogonalEdgeStyle;rounded=0;orthogonalLoop=1;jettySize=auto;html=1;exitX=0.5;exitY=1;exitDx=0;exitDy=0;entryX=0.5;entryY=0;entryDx=0;entryDy=0;strokeColor=#CC00CC;align=center;verticalAlign=middle;fontFamily=Helvetica;fontSize=11;fontColor=default;labelBackgroundColor=default;endArrow=classic;" edge="1" parent="1" source="m6HB10kPaZ1W_RpcMnGs-69" target="m6HB10kPaZ1W_RpcMnGs-72">
          <mxGeometry relative="1" as="geometry" />
        </mxCell>
        <mxCell id="m6HB10kPaZ1W_RpcMnGs-69" value="Enter quantity picked into the RF gun" style="whiteSpace=wrap;html=1;rounded=1;shadow=0;dashed=0;fontColor=#ffffff;strokeColor=#314354;fillColor=#647687;fontSize=14;" vertex="1" parent="1">
          <mxGeometry x="973" y="1568" width="125" height="50" as="geometry" />
        </mxCell>
        <mxCell id="m6HB10kPaZ1W_RpcMnGs-70" style="edgeStyle=none;rounded=0;orthogonalLoop=1;jettySize=auto;html=1;exitX=0.5;exitY=1;exitDx=0;exitDy=0;fontColor=#FFFFFF;strokeColor=#CC00CC;curved=0;entryX=0.5;entryY=0;entryDx=0;entryDy=0;" edge="1" parent="1" source="m6HB10kPaZ1W_RpcMnGs-72" target="m6HB10kPaZ1W_RpcMnGs-12">
          <mxGeometry relative="1" as="geometry">
            <Array as="points" />
            <mxPoint x="1080" y="1750" as="targetPoint" />
          </mxGeometry>
        </mxCell>
        <mxCell id="m6HB10kPaZ1W_RpcMnGs-71" value="&lt;span style=&quot;font-size: 12px ; text-align: left ; background-color: rgb(248 , 249 , 250)&quot;&gt;Pickingtask.ToteFull=True&lt;/span&gt;" style="edgeLabel;html=1;align=center;verticalAlign=middle;resizable=0;points=[];" vertex="1" connectable="0" parent="m6HB10kPaZ1W_RpcMnGs-70">
          <mxGeometry x="-0.4035" y="2" relative="1" as="geometry">
            <mxPoint x="3" y="5" as="offset" />
          </mxGeometry>
        </mxCell>
        <mxCell id="m6HB10kPaZ1W_RpcMnGs-72" value="Click confirm on the RF gun" style="whiteSpace=wrap;html=1;rounded=1;shadow=0;dashed=0;fontColor=#ffffff;strokeColor=#314354;fillColor=#647687;fontSize=14;" vertex="1" parent="1">
          <mxGeometry x="973" y="1658.25" width="125" height="50" as="geometry" />
        </mxCell>
        <mxCell id="m6HB10kPaZ1W_RpcMnGs-74" style="edgeStyle=none;rounded=0;orthogonalLoop=1;jettySize=auto;html=1;exitX=0.5;exitY=1;exitDx=0;exitDy=0;strokeColor=#CC00CC;" edge="1" parent="1" source="m6HB10kPaZ1W_RpcMnGs-75" target="m6HB10kPaZ1W_RpcMnGs-6">
          <mxGeometry relative="1" as="geometry" />
        </mxCell>
        <mxCell id="m6HB10kPaZ1W_RpcMnGs-75" value="Scan the SKU ID to be picked" style="whiteSpace=wrap;html=1;rounded=1;shadow=0;dashed=0;fontColor=#ffffff;strokeColor=#314354;fillColor=#647687;fontSize=14;" vertex="1" parent="1">
          <mxGeometry x="973" y="1360" width="125" height="50" as="geometry" />
        </mxCell>
        <mxCell id="m6HB10kPaZ1W_RpcMnGs-77" style="edgeStyle=elbowEdgeStyle;rounded=1;orthogonalLoop=1;jettySize=auto;html=1;exitX=1;exitY=0.5;exitDx=0;exitDy=0;strokeColor=#CC00CC;fontColor=#ffffff;curved=0;" edge="1" parent="1" source="m6HB10kPaZ1W_RpcMnGs-72" target="m6HB10kPaZ1W_RpcMnGs-87">
          <mxGeometry relative="1" as="geometry">
            <mxPoint x="1380" y="1080.9999999999998" as="sourcePoint" />
            <mxPoint x="1837" y="1069.2499999999998" as="targetPoint" />
          </mxGeometry>
        </mxCell>
        <mxCell id="m6HB10kPaZ1W_RpcMnGs-78" value="Travel to the exit of the aisle where the last item is located" style="whiteSpace=wrap;html=1;rounded=1;shadow=0;dashed=0;fontColor=#ffffff;strokeColor=#314354;fillColor=#0000FF;fontSize=14;" vertex="1" parent="1">
          <mxGeometry x="1363.75" y="1051.75" width="128.25" height="50" as="geometry" />
        </mxCell>
        <mxCell id="m6HB10kPaZ1W_RpcMnGs-79" value="" style="endArrow=classic;html=1;strokeColor=#CC00CC;entryX=0;entryY=0.5;entryDx=0;entryDy=0;exitX=1;exitY=0.5;exitDx=0;exitDy=0;" edge="1" parent="1" source="m6HB10kPaZ1W_RpcMnGs-78" target="m6HB10kPaZ1W_RpcMnGs-18">
          <mxGeometry width="50" height="50" relative="1" as="geometry">
            <mxPoint x="1684" y="1181.12" as="sourcePoint" />
            <mxPoint x="1924" y="1070.12" as="targetPoint" />
          </mxGeometry>
        </mxCell>
        <mxCell id="m6HB10kPaZ1W_RpcMnGs-80" value="Scan the next picking task via RF gun - 2nd" style="rounded=1;whiteSpace=wrap;html=1;fillColor=#647687;fontColor=#ffffff;strokeColor=#314354;fontSize=14;" vertex="1" parent="1">
          <mxGeometry x="545" y="1842" width="125" height="50" as="geometry" />
        </mxCell>
        <mxCell id="m6HB10kPaZ1W_RpcMnGs-81" value="" style="endArrow=classic;html=1;exitX=1;exitY=0.5;exitDx=0;exitDy=0;entryX=1;entryY=0.5;entryDx=0;entryDy=0;strokeColor=#CC00CC;" edge="1" parent="1" source="m6HB10kPaZ1W_RpcMnGs-96">
          <mxGeometry width="50" height="50" relative="1" as="geometry">
            <mxPoint x="1960" y="1600.9999999999995" as="sourcePoint" />
            <mxPoint x="876" y="1867" as="targetPoint" />
            <Array as="points" />
          </mxGeometry>
        </mxCell>
        <mxCell id="m6HB10kPaZ1W_RpcMnGs-82" value="Prepare empty totes - 2nd" style="rounded=1;whiteSpace=wrap;html=1;fillColor=#647687;fontColor=#ffffff;strokeColor=#314354;fontSize=14;" vertex="1" parent="1">
          <mxGeometry x="775" y="1842" width="125" height="50" as="geometry" />
        </mxCell>
        <mxCell id="m6HB10kPaZ1W_RpcMnGs-83" value="" style="edgeStyle=elbowEdgeStyle;rounded=0;orthogonalLoop=1;jettySize=auto;html=1;fontColor=#ffffff;exitX=0;exitY=0.5;exitDx=0;exitDy=0;strokeColor=#CC00CC;entryX=0;entryY=0.5;entryDx=0;entryDy=0;" edge="1" parent="1" source="m6HB10kPaZ1W_RpcMnGs-80" target="m6HB10kPaZ1W_RpcMnGs-21">
          <mxGeometry relative="1" as="geometry">
            <mxPoint x="1027" y="1009.1299999999992" as="sourcePoint" />
            <mxPoint x="520" y="1080" as="targetPoint" />
            <Array as="points">
              <mxPoint x="510" y="1470" />
              <mxPoint x="868" y="1291.3799999999997" />
            </Array>
          </mxGeometry>
        </mxCell>
        <mxCell id="m6HB10kPaZ1W_RpcMnGs-84" value="Tote" style="rounded=1;whiteSpace=wrap;html=1;labelBackgroundColor=none;fontSize=11;fillColor=#FF8000;fontColor=#FFFFFF;strokeColor=none;verticalAlign=middle;spacing=0;" vertex="1" parent="1">
          <mxGeometry x="780" y="1819.9999999999995" width="30" height="19" as="geometry" />
        </mxCell>
        <mxCell id="m6HB10kPaZ1W_RpcMnGs-85" value="" style="endArrow=classic;html=1;entryX=1;entryY=0.5;entryDx=0;entryDy=0;strokeColor=#CC00CC;exitX=0;exitY=0.5;exitDx=0;exitDy=0;" edge="1" parent="1" source="m6HB10kPaZ1W_RpcMnGs-82" target="m6HB10kPaZ1W_RpcMnGs-80">
          <mxGeometry width="50" height="50" relative="1" as="geometry">
            <mxPoint x="942" y="1866.9999999999995" as="sourcePoint" />
            <mxPoint x="816" y="1878.9999999999995" as="targetPoint" />
          </mxGeometry>
        </mxCell>
        <mxCell id="m6HB10kPaZ1W_RpcMnGs-86" value="Tote" style="rounded=1;whiteSpace=wrap;html=1;labelBackgroundColor=none;fontSize=11;fillColor=#FF8000;fontColor=#FFFFFF;strokeColor=none;verticalAlign=middle;spacing=0;" vertex="1" parent="1">
          <mxGeometry x="553.5" y="1819.9999999999998" width="30" height="19" as="geometry" />
        </mxCell>
        <mxCell id="m6HB10kPaZ1W_RpcMnGs-87" value="Buffer - 3rd" style="whiteSpace=wrap;html=1;rounded=1;shadow=0;dashed=0;fontColor=#ffffff;strokeColor=#314354;fillColor=#647687;fontSize=14;" vertex="1" parent="1">
          <mxGeometry x="1135" y="1048.5" width="75" height="50" as="geometry" />
        </mxCell>
        <mxCell id="m6HB10kPaZ1W_RpcMnGs-88" value="" style="endArrow=classic;html=1;strokeColor=#CC00CC;entryX=0;entryY=0.5;entryDx=0;entryDy=0;exitX=1;exitY=0.5;exitDx=0;exitDy=0;" edge="1" parent="1" source="m6HB10kPaZ1W_RpcMnGs-87" target="m6HB10kPaZ1W_RpcMnGs-78">
          <mxGeometry width="50" height="50" relative="1" as="geometry">
            <mxPoint x="1505" y="1328.2499999999998" as="sourcePoint" />
            <mxPoint x="1555" y="1278.2499999999998" as="targetPoint" />
          </mxGeometry>
        </mxCell>
        <mxCell id="m6HB10kPaZ1W_RpcMnGs-89" value="Pickline.last_pickline=True" style="text;whiteSpace=wrap;html=1;" vertex="1" parent="1">
          <mxGeometry x="1210" y="1048.2499999999998" width="160" height="28" as="geometry" />
        </mxCell>
        <mxCell id="m6HB10kPaZ1W_RpcMnGs-90" value="" style="endArrow=classic;html=1;strokeColor=#CC00CC;exitX=1;exitY=1;exitDx=0;exitDy=0;entryX=0;entryY=0.75;entryDx=0;entryDy=0;" edge="1" parent="1" source="m6HB10kPaZ1W_RpcMnGs-87" target="m6HB10kPaZ1W_RpcMnGs-92">
          <mxGeometry width="50" height="50" relative="1" as="geometry">
            <mxPoint x="1505" y="1328.2499999999998" as="sourcePoint" />
            <mxPoint x="1555" y="1278.2499999999998" as="targetPoint" />
            <Array as="points">
              <mxPoint x="1309" y="1172" />
            </Array>
          </mxGeometry>
        </mxCell>
        <mxCell id="m6HB10kPaZ1W_RpcMnGs-91" value="&lt;span style=&quot;font-size: 12px ; text-align: left ; background-color: rgb(248 , 249 , 250)&quot;&gt;Pickline.last_pickline=False&lt;/span&gt;" style="edgeLabel;html=1;align=center;verticalAlign=middle;resizable=0;points=[];" vertex="1" connectable="0" parent="m6HB10kPaZ1W_RpcMnGs-90">
          <mxGeometry x="-0.6845" y="1" relative="1" as="geometry">
            <mxPoint x="61" y="7" as="offset" />
          </mxGeometry>
        </mxCell>
        <mxCell id="m6HB10kPaZ1W_RpcMnGs-92" value="Terminating for False" style="whiteSpace=wrap;html=1;rounded=1;shadow=0;dashed=0;fontColor=#ffffff;strokeColor=#314354;fillColor=#647687;fontSize=14;" vertex="1" parent="1">
          <mxGeometry x="1505" y="1138.25" width="75" height="50" as="geometry" />
        </mxCell>
        <mxCell id="m6HB10kPaZ1W_RpcMnGs-93" style="edgeStyle=elbowEdgeStyle;rounded=0;orthogonalLoop=1;jettySize=auto;html=1;strokeColor=#CC00CC;fontColor=#ffffff;dashed=1;exitX=0.011;exitY=0.132;exitDx=0;exitDy=0;exitPerimeter=0;" edge="1" parent="1" source="m6HB10kPaZ1W_RpcMnGs-92">
          <mxGeometry relative="1" as="geometry">
            <mxPoint x="1506" y="1017" as="targetPoint" />
            <Array as="points" />
            <mxPoint x="1938" y="1060.4999999999998" as="sourcePoint" />
          </mxGeometry>
        </mxCell>
        <mxCell id="m6HB10kPaZ1W_RpcMnGs-94" style="edgeStyle=none;rounded=0;orthogonalLoop=1;jettySize=auto;html=1;exitX=0.5;exitY=1;exitDx=0;exitDy=0;entryX=0.5;entryY=0;entryDx=0;entryDy=0;strokeColor=#CC00CC;" edge="1" parent="1" source="m6HB10kPaZ1W_RpcMnGs-95" target="m6HB10kPaZ1W_RpcMnGs-65">
          <mxGeometry relative="1" as="geometry" />
        </mxCell>
        <mxCell id="m6HB10kPaZ1W_RpcMnGs-95" value="Scan the picking tote on the trolley" style="whiteSpace=wrap;html=1;rounded=1;shadow=0;dashed=0;fontColor=#ffffff;strokeColor=#314354;fillColor=#647687;fontSize=14;" vertex="1" parent="1">
          <mxGeometry x="973" y="1152" width="125" height="50" as="geometry" />
        </mxCell>
        <mxCell id="m6HB10kPaZ1W_RpcMnGs-96" value="Unload the totes" style="rounded=1;whiteSpace=wrap;html=1;fontColor=#ffffff;strokeColor=#314354;fillColor=#647687;fontSize=14;" vertex="1" parent="1">
          <mxGeometry x="973" y="1842" width="125" height="50" as="geometry" />
        </mxCell>
        <mxCell id="m6HB10kPaZ1W_RpcMnGs-98" style="edgeStyle=none;rounded=0;orthogonalLoop=1;jettySize=auto;html=1;exitX=0.5;exitY=1;exitDx=0;exitDy=0;entryX=0.5;entryY=0;entryDx=0;entryDy=0;strokeColor=#CC00CC;" edge="1" parent="1" source="m6HB10kPaZ1W_RpcMnGs-99" target="m6HB10kPaZ1W_RpcMnGs-95">
          <mxGeometry relative="1" as="geometry" />
        </mxCell>
        <mxCell id="m6HB10kPaZ1W_RpcMnGs-99" value="Travel to the location" style="whiteSpace=wrap;html=1;rounded=1;shadow=0;dashed=0;fillColor=#0000FF;strokeColor=#314354;fontColor=#ffffff;fontSize=14;" vertex="1" parent="1">
          <mxGeometry x="973" y="1048.5" width="125" height="50" as="geometry" />
        </mxCell>
        <mxCell id="m6HB10kPaZ1W_RpcMnGs-100" value="Space_Aisle 1/2/3/4/5/6/7/8" style="rounded=1;whiteSpace=wrap;html=1;labelBackgroundColor=none;fontSize=11;fillColor=#FF8000;fontColor=#FFFFFF;strokeColor=none;verticalAlign=middle;spacing=0;" vertex="1" parent="1">
          <mxGeometry x="879" y="1020" width="75" height="25" as="geometry" />
        </mxCell>
        <mxCell id="m6HB10kPaZ1W_RpcMnGs-101" value="Space_Aisle 1/2/3/4/5/6/7/8" style="rounded=1;whiteSpace=wrap;html=1;labelBackgroundColor=none;fontSize=11;fillColor=#FF8000;fontColor=#FFFFFF;strokeColor=none;verticalAlign=middle;spacing=0;" vertex="1" parent="1">
          <mxGeometry x="978" y="1020" width="75" height="25" as="geometry" />
        </mxCell>
        <mxCell id="m6HB10kPaZ1W_RpcMnGs-102" value="Space_Aisle 1/2/3/4/5/6/7/8" style="rounded=1;whiteSpace=wrap;html=1;labelBackgroundColor=none;fontSize=11;fillColor=#FF8000;fontColor=#FFFFFF;strokeColor=none;verticalAlign=middle;spacing=0;" vertex="1" parent="1">
          <mxGeometry x="978" y="1123" width="75" height="25" as="geometry" />
        </mxCell>
        <mxCell id="m6HB10kPaZ1W_RpcMnGs-103" value="Space_Aisle 1/2/3/4/5/6/7/8" style="rounded=1;whiteSpace=wrap;html=1;labelBackgroundColor=none;fontSize=11;fillColor=#FF8000;fontColor=#FFFFFF;strokeColor=none;verticalAlign=middle;spacing=0;" vertex="1" parent="1">
          <mxGeometry x="978" y="1227" width="75" height="25" as="geometry" />
        </mxCell>
        <mxCell id="m6HB10kPaZ1W_RpcMnGs-104" value="Space_Aisle 1/2/3/4/5/6/7/8" style="rounded=1;whiteSpace=wrap;html=1;labelBackgroundColor=none;fontSize=11;fillColor=#FF8000;fontColor=#FFFFFF;strokeColor=none;verticalAlign=middle;spacing=0;" vertex="1" parent="1">
          <mxGeometry x="978" y="1330" width="75" height="25" as="geometry" />
        </mxCell>
        <mxCell id="m6HB10kPaZ1W_RpcMnGs-105" value="Space_Aisle 1/2/3/4/5/6/7/8" style="rounded=1;whiteSpace=wrap;html=1;labelBackgroundColor=none;fontSize=11;fillColor=#FF8000;fontColor=#FFFFFF;strokeColor=none;verticalAlign=middle;spacing=0;" vertex="1" parent="1">
          <mxGeometry x="978" y="1434" width="75" height="25" as="geometry" />
        </mxCell>
        <mxCell id="m6HB10kPaZ1W_RpcMnGs-106" value="Space_Aisle 1/2/3/4/5/6/7/8" style="rounded=1;whiteSpace=wrap;html=1;labelBackgroundColor=none;fontSize=11;fillColor=#FF8000;fontColor=#FFFFFF;strokeColor=none;verticalAlign=middle;spacing=0;" vertex="1" parent="1">
          <mxGeometry x="980" y="1626.25" width="75" height="25" as="geometry" />
        </mxCell>
        <mxCell id="m6HB10kPaZ1W_RpcMnGs-107" value="Space_Aisle 1/2/3/4/5/6/7/8" style="rounded=1;whiteSpace=wrap;html=1;labelBackgroundColor=none;fontSize=11;fillColor=#FF8000;fontColor=#FFFFFF;strokeColor=none;verticalAlign=middle;spacing=0;" vertex="1" parent="1">
          <mxGeometry x="978" y="1537" width="75" height="25" as="geometry" />
        </mxCell>
        <mxCell id="m6HB10kPaZ1W_RpcMnGs-108" value="Space_Aisle 1/2/3/4/5/6/7/8" style="rounded=1;whiteSpace=wrap;html=1;labelBackgroundColor=none;fontSize=11;fillColor=#FF8000;fontColor=#FFFFFF;strokeColor=none;verticalAlign=middle;spacing=0;" vertex="1" parent="1">
          <mxGeometry x="1135" y="1020" width="75" height="25" as="geometry" />
        </mxCell>
        <mxCell id="m6HB10kPaZ1W_RpcMnGs-109" value="Space_Aisle 1/2/3/4/5/6/7/8" style="rounded=1;whiteSpace=wrap;html=1;labelBackgroundColor=none;fontSize=11;fillColor=#FF8000;fontColor=#FFFFFF;strokeColor=none;verticalAlign=middle;spacing=0;" vertex="1" parent="1">
          <mxGeometry x="1366" y="1023.25" width="75" height="25" as="geometry" />
        </mxCell>
        <mxCell id="m6HB10kPaZ1W_RpcMnGs-110" value="" style="group" vertex="1" connectable="0" parent="1">
          <mxGeometry x="1377" y="826" width="346" height="114" as="geometry" />
        </mxCell>
        <mxCell id="m6HB10kPaZ1W_RpcMnGs-111" value="" style="rounded=1;whiteSpace=wrap;html=1;fillColor=#0000FF;fontColor=#ffffff;strokeColor=#314354;" vertex="1" parent="m6HB10kPaZ1W_RpcMnGs-110">
          <mxGeometry y="63" width="27.03125" height="20" as="geometry" />
        </mxCell>
        <mxCell id="m6HB10kPaZ1W_RpcMnGs-112" value="" style="rounded=0;whiteSpace=wrap;html=1;fillColor=none;strokeColor=#FF0080;shadow=1;" vertex="1" parent="m6HB10kPaZ1W_RpcMnGs-110">
          <mxGeometry y="94" width="27.03125" height="20" as="geometry" />
        </mxCell>
        <mxCell id="m6HB10kPaZ1W_RpcMnGs-113" value="" style="rounded=1;whiteSpace=wrap;html=1;labelBackgroundColor=none;fontSize=8;fillColor=#FF8000;fontColor=#FFFFFF;strokeColor=none;verticalAlign=middle;spacing=0;arcSize=0;" vertex="1" parent="m6HB10kPaZ1W_RpcMnGs-110">
          <mxGeometry width="27.03125" height="20" as="geometry" />
        </mxCell>
        <mxCell id="m6HB10kPaZ1W_RpcMnGs-114" value="" style="rounded=1;whiteSpace=wrap;html=1;fillColor=#647687;fontColor=#ffffff;strokeColor=#314354;" vertex="1" parent="m6HB10kPaZ1W_RpcMnGs-110">
          <mxGeometry y="31" width="27.03125" height="20" as="geometry" />
        </mxCell>
        <mxCell id="m6HB10kPaZ1W_RpcMnGs-115" value="&lt;span style=&quot;font-size: 14px;&quot;&gt;Activities with travel&lt;/span&gt;" style="text;html=1;strokeColor=none;fillColor=none;align=left;verticalAlign=middle;whiteSpace=wrap;rounded=0;dashed=1;fontSize=14;" vertex="1" parent="m6HB10kPaZ1W_RpcMnGs-110">
          <mxGeometry x="44.6015625" y="63" width="283.828125" height="20" as="geometry" />
        </mxCell>
        <mxCell id="m6HB10kPaZ1W_RpcMnGs-116" value="&lt;span style=&quot;font-size: 14px;&quot;&gt;Activities without travel&lt;/span&gt;" style="text;html=1;strokeColor=none;fillColor=none;align=left;verticalAlign=middle;whiteSpace=wrap;rounded=0;dashed=1;fontSize=14;" vertex="1" parent="m6HB10kPaZ1W_RpcMnGs-110">
          <mxGeometry x="44.6015625" y="31" width="301.3984375" height="20" as="geometry" />
        </mxCell>
        <mxCell id="m6HB10kPaZ1W_RpcMnGs-117" value="&lt;span style=&quot;font-size: 14px;&quot;&gt;Source&lt;/span&gt;" style="text;html=1;strokeColor=none;fillColor=none;align=left;verticalAlign=middle;whiteSpace=wrap;rounded=0;dashed=1;fontSize=14;" vertex="1" parent="m6HB10kPaZ1W_RpcMnGs-110">
          <mxGeometry x="44.6015625" width="54.0625" height="20" as="geometry" />
        </mxCell>
        <mxCell id="m6HB10kPaZ1W_RpcMnGs-118" value="&lt;span style=&quot;font-size: 14px;&quot;&gt;Dynamic duration&lt;/span&gt;" style="text;html=1;strokeColor=none;fillColor=none;align=left;verticalAlign=middle;whiteSpace=wrap;rounded=0;dashed=1;fontSize=14;" vertex="1" parent="m6HB10kPaZ1W_RpcMnGs-110">
          <mxGeometry x="44.6015625" y="94" width="166.2421875" height="20" as="geometry" />
        </mxCell>
        <mxCell id="m6HB10kPaZ1W_RpcMnGs-119" style="edgeStyle=none;rounded=1;orthogonalLoop=1;jettySize=auto;html=1;exitX=1;exitY=1;exitDx=0;exitDy=0;fontSize=14;strokeColor=#CC00CC;align=left;" edge="1" parent="m6HB10kPaZ1W_RpcMnGs-110" source="m6HB10kPaZ1W_RpcMnGs-112" target="m6HB10kPaZ1W_RpcMnGs-112">
          <mxGeometry relative="1" as="geometry" />
        </mxCell>
        <mxCell id="m6HB10kPaZ1W_RpcMnGs-120" style="edgeStyle=none;rounded=1;orthogonalLoop=1;jettySize=auto;html=1;exitX=1;exitY=0.5;exitDx=0;exitDy=0;fontSize=14;strokeColor=#CC00CC;align=left;" edge="1" parent="m6HB10kPaZ1W_RpcMnGs-110" source="m6HB10kPaZ1W_RpcMnGs-112" target="m6HB10kPaZ1W_RpcMnGs-112">
          <mxGeometry relative="1" as="geometry" />
        </mxCell>
        <mxCell id="m6HB10kPaZ1W_RpcMnGs-76" value="&lt;span style=&quot;text-wrap: nowrap; background-color: rgb(248, 249, 250);&quot;&gt;Pickingtask&lt;/span&gt;.ToteFull=False" style="text;whiteSpace=wrap;html=1;labelBackgroundColor=default;" vertex="1" parent="1">
          <mxGeometry x="1104.5" y="1645.25" width="146" height="28" as="geometry" />
        </mxCell>
      </root>
    </mxGraphModel>
  </diagram>
  <diagram id="RoAEGWHQUCfiw7DewQiM" name="第 2 页">
    <mxGraphModel grid="1" page="1" gridSize="10" guides="1" tooltips="1" connect="1" arrows="1" fold="1" pageScale="1" pageWidth="827" pageHeight="1169" math="0" shadow="0">
      <root>
        <mxCell id="0" />
        <mxCell id="1" parent="0" />
        <mxCell id="QF84RngTrCzhq8t4GvT7-1" value="" style="rounded=0;whiteSpace=wrap;html=1;fillColor=none;strokeColor=#FF0080;shadow=1;" vertex="1" parent="1">
          <mxGeometry x="-1293" y="-2754" width="248" height="90" as="geometry" />
        </mxCell>
        <mxCell id="QF84RngTrCzhq8t4GvT7-2" value="" style="edgeStyle=orthogonalEdgeStyle;rounded=0;orthogonalLoop=1;jettySize=auto;html=1;exitX=1;exitY=0.5;exitDx=0;exitDy=0;entryX=0;entryY=0.5;entryDx=0;entryDy=0;" edge="1" parent="1" source="QF84RngTrCzhq8t4GvT7-3" target="QF84RngTrCzhq8t4GvT7-5">
          <mxGeometry relative="1" as="geometry">
            <mxPoint x="-1756" y="-3400" as="sourcePoint" />
            <mxPoint x="-1697" y="-3229" as="targetPoint" />
          </mxGeometry>
        </mxCell>
        <mxCell id="QF84RngTrCzhq8t4GvT7-3" value="All orders" style="shape=step;perimeter=stepPerimeter;whiteSpace=wrap;html=1;fixedSize=1;size=10;fillColor=#B3B3B3;strokeColor=none;fontColor=#FFFFFF;" vertex="1" parent="1">
          <mxGeometry x="-1644" y="-3254" width="90" height="27" as="geometry" />
        </mxCell>
        <mxCell id="QF84RngTrCzhq8t4GvT7-4" style="edgeStyle=orthogonalEdgeStyle;rounded=0;orthogonalLoop=1;jettySize=auto;html=1;exitX=0.621;exitY=1.003;exitDx=0;exitDy=0;exitPerimeter=0;" edge="1" parent="1" source="QF84RngTrCzhq8t4GvT7-5">
          <mxGeometry relative="1" as="geometry">
            <mxPoint x="-1484" y="-3215" as="sourcePoint" />
            <mxPoint x="-1477" y="-3176" as="targetPoint" />
          </mxGeometry>
        </mxCell>
        <mxCell id="QF84RngTrCzhq8t4GvT7-5" value="Replenishment" style="rounded=1;whiteSpace=wrap;html=1;fillColor=#647687;fontColor=#ffffff;strokeColor=#314354;" vertex="1" parent="1">
          <mxGeometry x="-1535" y="-3265.5" width="102" height="50" as="geometry" />
        </mxCell>
        <mxCell id="QF84RngTrCzhq8t4GvT7-6" style="edgeStyle=orthogonalEdgeStyle;rounded=0;orthogonalLoop=1;jettySize=auto;html=1;exitX=0.75;exitY=1;exitDx=0;exitDy=0;entryX=0.75;entryY=0;entryDx=0;entryDy=0;" edge="1" parent="1" source="QF84RngTrCzhq8t4GvT7-7" target="QF84RngTrCzhq8t4GvT7-9">
          <mxGeometry relative="1" as="geometry" />
        </mxCell>
        <mxCell id="QF84RngTrCzhq8t4GvT7-7" value="Generate pickwaves by order (one pickwave is for one order)" style="rounded=1;whiteSpace=wrap;html=1;fillColor=#647687;fontColor=#ffffff;strokeColor=#314354;" vertex="1" parent="1">
          <mxGeometry x="-1616" y="-3174.37" width="183" height="50" as="geometry" />
        </mxCell>
        <mxCell id="QF84RngTrCzhq8t4GvT7-8" style="edgeStyle=orthogonalEdgeStyle;rounded=0;orthogonalLoop=1;jettySize=auto;html=1;exitX=1;exitY=0.5;exitDx=0;exitDy=0;entryX=0;entryY=0.5;entryDx=0;entryDy=0;" edge="1" parent="1" source="QF84RngTrCzhq8t4GvT7-9" target="QF84RngTrCzhq8t4GvT7-16">
          <mxGeometry relative="1" as="geometry">
            <Array as="points">
              <mxPoint x="-1421" y="-3064" />
              <mxPoint x="-1421" y="-3240" />
            </Array>
          </mxGeometry>
        </mxCell>
        <mxCell id="QF84RngTrCzhq8t4GvT7-9" value="&lt;span&gt;Generate picklines for multiple SKU&lt;/span&gt;s in one pickwave&lt;br&gt;&lt;span&gt;(one pickline is for one SKU)&lt;br&gt;&lt;/span&gt;" style="rounded=1;whiteSpace=wrap;html=1;fillColor=#647687;fontColor=#ffffff;strokeColor=#314354;" vertex="1" parent="1">
          <mxGeometry x="-1615" y="-3089.51" width="182" height="50" as="geometry" />
        </mxCell>
        <mxCell id="QF84RngTrCzhq8t4GvT7-10" value="" style="endArrow=open;dashed=1;html=1;fontColor=#FFFFFF;endFill=0;exitX=0;exitY=1;exitDx=0;exitDy=0;entryX=0;entryY=0.016;entryDx=0;entryDy=0;entryPerimeter=0;" edge="1" parent="1" source="QF84RngTrCzhq8t4GvT7-16" target="QF84RngTrCzhq8t4GvT7-12">
          <mxGeometry width="50" height="50" relative="1" as="geometry">
            <mxPoint x="-777" y="-3215" as="sourcePoint" />
            <mxPoint x="-1030" y="-3133" as="targetPoint" />
          </mxGeometry>
        </mxCell>
        <mxCell id="QF84RngTrCzhq8t4GvT7-11" value="" style="edgeStyle=none;rounded=0;jumpSize=0;orthogonalLoop=1;jettySize=auto;html=1;entryX=0;entryY=0.5;entryDx=0;entryDy=0;exitX=1;exitY=0.5;exitDx=0;exitDy=0;" edge="1" parent="1" source="QF84RngTrCzhq8t4GvT7-12" target="QF84RngTrCzhq8t4GvT7-14">
          <mxGeometry relative="1" as="geometry">
            <mxPoint x="-1241" y="-3149" as="targetPoint" />
            <mxPoint x="-1291.002536854864" y="-3149.370909321532" as="sourcePoint" />
          </mxGeometry>
        </mxCell>
        <mxCell id="QF84RngTrCzhq8t4GvT7-12" value="One pickwave&amp;nbsp;" style="shape=step;perimeter=stepPerimeter;whiteSpace=wrap;html=1;fixedSize=1;size=10;fillColor=#B3B3B3;strokeColor=none;fontColor=#FFFFFF;" vertex="1" parent="1">
          <mxGeometry x="-1409" y="-3165.5" width="103" height="32.25" as="geometry" />
        </mxCell>
        <mxCell id="QF84RngTrCzhq8t4GvT7-13" style="edgeStyle=orthogonalEdgeStyle;rounded=0;orthogonalLoop=1;jettySize=auto;html=1;exitX=0.5;exitY=1;exitDx=0;exitDy=0;entryX=0.5;entryY=0;entryDx=0;entryDy=0;" edge="1" parent="1" source="QF84RngTrCzhq8t4GvT7-14" target="QF84RngTrCzhq8t4GvT7-24">
          <mxGeometry relative="1" as="geometry" />
        </mxCell>
        <mxCell id="QF84RngTrCzhq8t4GvT7-14" value="Confirm specific location of each pickline&amp;nbsp;" style="rounded=1;whiteSpace=wrap;html=1;fillColor=#647687;fontColor=#ffffff;strokeColor=#314354;" vertex="1" parent="1">
          <mxGeometry x="-1281" y="-3174.37" width="230" height="50" as="geometry" />
        </mxCell>
        <mxCell id="QF84RngTrCzhq8t4GvT7-15" style="edgeStyle=none;rounded=0;jumpSize=0;orthogonalLoop=1;jettySize=auto;html=1;exitX=1;exitY=0.5;exitDx=0;exitDy=0;entryX=0;entryY=0.5;entryDx=0;entryDy=0;entryPerimeter=0;" edge="1" parent="1" source="QF84RngTrCzhq8t4GvT7-16" target="QF84RngTrCzhq8t4GvT7-17">
          <mxGeometry relative="1" as="geometry" />
        </mxCell>
        <mxCell id="QF84RngTrCzhq8t4GvT7-16" value="Picking" style="whiteSpace=wrap;html=1;rounded=1;fontColor=#ffffff;strokeColor=#314354;fillColor=#647687;" vertex="1" parent="1">
          <mxGeometry x="-1409" y="-3265" width="376" height="50" as="geometry" />
        </mxCell>
        <mxCell id="QF84RngTrCzhq8t4GvT7-17" value="All orders" style="strokeWidth=2;html=1;shape=mxgraph.flowchart.terminator;whiteSpace=wrap;fillColor=#B3B3B3;fontColor=#FFFFFF;strokeColor=none;" vertex="1" parent="1">
          <mxGeometry x="-1009" y="-3254" width="80" height="28" as="geometry" />
        </mxCell>
        <mxCell id="QF84RngTrCzhq8t4GvT7-18" style="edgeStyle=none;rounded=0;jumpSize=0;orthogonalLoop=1;jettySize=auto;html=1;exitX=0.5;exitY=1;exitDx=0;exitDy=0;" edge="1" parent="1" source="QF84RngTrCzhq8t4GvT7-19" target="QF84RngTrCzhq8t4GvT7-34">
          <mxGeometry relative="1" as="geometry" />
        </mxCell>
        <mxCell id="QF84RngTrCzhq8t4GvT7-19" value="Travel to the drop-off point before closing this pickwave" style="rounded=1;whiteSpace=wrap;html=1;fontColor=#ffffff;strokeColor=#314354;fillColor=#0000FF;" vertex="1" parent="1">
          <mxGeometry x="-1281" y="-2723" width="230" height="50" as="geometry" />
        </mxCell>
        <mxCell id="QF84RngTrCzhq8t4GvT7-20" value="Close pickwave" style="whiteSpace=wrap;html=1;rounded=1;shadow=0;dashed=0;fontColor=#ffffff;strokeColor=#314354;fillColor=#647687;" vertex="1" parent="1">
          <mxGeometry x="-1035" y="-2628" width="95" height="50" as="geometry" />
        </mxCell>
        <mxCell id="QF84RngTrCzhq8t4GvT7-21" value="Pickwave" style="strokeWidth=2;html=1;shape=mxgraph.flowchart.terminator;whiteSpace=wrap;fillColor=#B3B3B3;fontColor=#FFFFFF;strokeColor=none;" vertex="1" parent="1">
          <mxGeometry x="-922.5" y="-2617" width="57.5" height="28" as="geometry" />
        </mxCell>
        <mxCell id="QF84RngTrCzhq8t4GvT7-22" value="" style="endArrow=block;html=1;fontColor=#FFFFFF;endFill=1;fontSize=8;exitX=1;exitY=0.5;exitDx=0;exitDy=0;" edge="1" parent="1" source="QF84RngTrCzhq8t4GvT7-20" target="QF84RngTrCzhq8t4GvT7-21">
          <mxGeometry width="50" height="50" relative="1" as="geometry">
            <mxPoint x="437" y="-3013.2499999999995" as="sourcePoint" />
            <mxPoint x="-363" y="-3080.7499999999995" as="targetPoint" />
          </mxGeometry>
        </mxCell>
        <mxCell id="QF84RngTrCzhq8t4GvT7-23" value="Picker" style="rounded=1;whiteSpace=wrap;html=1;labelBackgroundColor=none;fontSize=11;fillColor=#FF8000;fontColor=#FFFFFF;strokeColor=none;verticalAlign=middle;spacing=0;arcSize=0;" vertex="1" parent="1">
          <mxGeometry x="-1282" y="-3112.0000000000005" width="35" height="19" as="geometry" />
        </mxCell>
        <mxCell id="QF84RngTrCzhq8t4GvT7-24" value="Travel to retrieve trolley" style="rounded=1;whiteSpace=wrap;html=1;fontColor=#ffffff;strokeColor=#314354;fillColor=#0000FF;" vertex="1" parent="1">
          <mxGeometry x="-1281" y="-3089.51" width="230" height="50" as="geometry" />
        </mxCell>
        <mxCell id="QF84RngTrCzhq8t4GvT7-25" style="edgeStyle=orthogonalEdgeStyle;rounded=0;orthogonalLoop=1;jettySize=auto;html=1;exitX=0.5;exitY=1;exitDx=0;exitDy=0;entryX=0.5;entryY=0;entryDx=0;entryDy=0;" edge="1" parent="1" source="QF84RngTrCzhq8t4GvT7-26" target="QF84RngTrCzhq8t4GvT7-19">
          <mxGeometry relative="1" as="geometry">
            <mxPoint x="-1166" y="-2761" as="sourcePoint" />
          </mxGeometry>
        </mxCell>
        <mxCell id="QF84RngTrCzhq8t4GvT7-26" value="Picking - Quota Constrained Activity" style="whiteSpace=wrap;html=1;rounded=1;fontColor=#ffffff;strokeColor=#314354;fillColor=#CC0000;" vertex="1" parent="1">
          <mxGeometry x="-1281" y="-2827" width="230" height="50" as="geometry" />
        </mxCell>
        <mxCell id="QF84RngTrCzhq8t4GvT7-27" value="Tote" style="rounded=1;whiteSpace=wrap;html=1;labelBackgroundColor=none;fontSize=11;fillColor=#FF8000;fontColor=#FFFFFF;strokeColor=none;verticalAlign=middle;spacing=0;" vertex="1" parent="1">
          <mxGeometry x="-1206" y="-3028.0000000000005" width="35" height="19" as="geometry" />
        </mxCell>
        <mxCell id="QF84RngTrCzhq8t4GvT7-28" style="edgeStyle=orthogonalEdgeStyle;rounded=0;orthogonalLoop=1;jettySize=auto;html=1;exitX=0.5;exitY=1;exitDx=0;exitDy=0;entryX=0.5;entryY=0;entryDx=0;entryDy=0;" edge="1" parent="1" source="QF84RngTrCzhq8t4GvT7-29" target="QF84RngTrCzhq8t4GvT7-47">
          <mxGeometry relative="1" as="geometry" />
        </mxCell>
        <mxCell id="QF84RngTrCzhq8t4GvT7-29" value="Prepare trolley and totes" style="rounded=1;whiteSpace=wrap;html=1;fontColor=#ffffff;strokeColor=#314354;fillColor=#647687;" vertex="1" parent="1">
          <mxGeometry x="-1281" y="-3003" width="230" height="50" as="geometry" />
        </mxCell>
        <mxCell id="QF84RngTrCzhq8t4GvT7-30" value="Picker" style="rounded=1;whiteSpace=wrap;html=1;labelBackgroundColor=none;fontSize=11;fillColor=#FF8000;fontColor=#FFFFFF;strokeColor=none;verticalAlign=middle;spacing=0;" vertex="1" parent="1">
          <mxGeometry x="-1282" y="-3028.0000000000005" width="35" height="19" as="geometry" />
        </mxCell>
        <mxCell id="QF84RngTrCzhq8t4GvT7-31" value="Trolley" style="rounded=1;whiteSpace=wrap;html=1;labelBackgroundColor=none;fontSize=11;fillColor=#FF8000;fontColor=#FFFFFF;strokeColor=none;verticalAlign=middle;spacing=0;" vertex="1" parent="1">
          <mxGeometry x="-1244" y="-3028.0000000000005" width="35" height="19" as="geometry" />
        </mxCell>
        <mxCell id="QF84RngTrCzhq8t4GvT7-32" style="rounded=0;orthogonalLoop=1;jettySize=auto;html=1;fontColor=#FFFFFF;exitX=0.5;exitY=1;exitDx=0;exitDy=0;entryX=0.5;entryY=0;entryDx=0;entryDy=0;" edge="1" parent="1" source="QF84RngTrCzhq8t4GvT7-24" target="QF84RngTrCzhq8t4GvT7-29">
          <mxGeometry relative="1" as="geometry">
            <mxPoint x="-607" y="-3064.76" as="sourcePoint" />
            <Array as="points" />
            <mxPoint x="-1169" y="-3009" as="targetPoint" />
          </mxGeometry>
        </mxCell>
        <mxCell id="QF84RngTrCzhq8t4GvT7-33" style="edgeStyle=none;rounded=0;jumpSize=0;orthogonalLoop=1;jettySize=auto;html=1;exitX=1;exitY=0.5;exitDx=0;exitDy=0;" edge="1" parent="1" source="QF84RngTrCzhq8t4GvT7-34" target="QF84RngTrCzhq8t4GvT7-20">
          <mxGeometry relative="1" as="geometry" />
        </mxCell>
        <mxCell id="QF84RngTrCzhq8t4GvT7-34" value="Unload the totes at packing area&amp;nbsp;" style="rounded=1;whiteSpace=wrap;html=1;fontColor=#ffffff;strokeColor=#314354;fillColor=#647687;" vertex="1" parent="1">
          <mxGeometry x="-1281" y="-2628" width="230" height="50" as="geometry" />
        </mxCell>
        <mxCell id="QF84RngTrCzhq8t4GvT7-35" value="Tote" style="rounded=1;whiteSpace=wrap;html=1;labelBackgroundColor=none;fontSize=11;fillColor=#FF8000;fontColor=#FFFFFF;strokeColor=none;verticalAlign=middle;spacing=0;" vertex="1" parent="1">
          <mxGeometry x="-1206" y="-2849.0000000000005" width="35" height="19" as="geometry" />
        </mxCell>
        <mxCell id="QF84RngTrCzhq8t4GvT7-36" value="Picker" style="rounded=1;whiteSpace=wrap;html=1;labelBackgroundColor=none;fontSize=11;fillColor=#FF8000;fontColor=#FFFFFF;strokeColor=none;verticalAlign=middle;spacing=0;" vertex="1" parent="1">
          <mxGeometry x="-1282" y="-2849.0000000000005" width="35" height="19" as="geometry" />
        </mxCell>
        <mxCell id="QF84RngTrCzhq8t4GvT7-37" value="Trolley" style="rounded=1;whiteSpace=wrap;html=1;labelBackgroundColor=none;fontSize=11;fillColor=#FF8000;fontColor=#FFFFFF;strokeColor=none;verticalAlign=middle;spacing=0;" vertex="1" parent="1">
          <mxGeometry x="-1244" y="-2849.0000000000005" width="35" height="19" as="geometry" />
        </mxCell>
        <mxCell id="QF84RngTrCzhq8t4GvT7-38" value="Tote" style="rounded=1;whiteSpace=wrap;html=1;labelBackgroundColor=none;fontSize=11;fillColor=#FF8000;fontColor=#FFFFFF;strokeColor=none;verticalAlign=middle;spacing=0;" vertex="1" parent="1">
          <mxGeometry x="-1206" y="-2746.0000000000005" width="33" height="19" as="geometry" />
        </mxCell>
        <mxCell id="QF84RngTrCzhq8t4GvT7-39" value="Picker" style="rounded=1;whiteSpace=wrap;html=1;labelBackgroundColor=none;fontSize=11;fillColor=#FF8000;fontColor=#FFFFFF;strokeColor=none;verticalAlign=middle;spacing=0;" vertex="1" parent="1">
          <mxGeometry x="-1282" y="-2746.0000000000005" width="33" height="19" as="geometry" />
        </mxCell>
        <mxCell id="QF84RngTrCzhq8t4GvT7-40" value="Trolley" style="rounded=1;whiteSpace=wrap;html=1;labelBackgroundColor=none;fontSize=11;fillColor=#FF8000;fontColor=#FFFFFF;strokeColor=none;verticalAlign=middle;spacing=0;" vertex="1" parent="1">
          <mxGeometry x="-1244" y="-2746.0000000000005" width="33" height="19" as="geometry" />
        </mxCell>
        <mxCell id="QF84RngTrCzhq8t4GvT7-41" value="Tote" style="rounded=1;whiteSpace=wrap;html=1;labelBackgroundColor=none;fontSize=11;fillColor=#FF8000;fontColor=#FFFFFF;strokeColor=none;verticalAlign=middle;spacing=0;" vertex="1" parent="1">
          <mxGeometry x="-1206" y="-2652.0000000000005" width="33" height="19" as="geometry" />
        </mxCell>
        <mxCell id="QF84RngTrCzhq8t4GvT7-42" value="Picker" style="rounded=1;whiteSpace=wrap;html=1;labelBackgroundColor=none;fontSize=11;fillColor=#FF8000;fontColor=#FFFFFF;strokeColor=none;verticalAlign=middle;spacing=0;" vertex="1" parent="1">
          <mxGeometry x="-1282" y="-2652.0000000000005" width="33" height="19" as="geometry" />
        </mxCell>
        <mxCell id="QF84RngTrCzhq8t4GvT7-43" value="Trolley" style="rounded=1;whiteSpace=wrap;html=1;labelBackgroundColor=none;fontSize=11;fillColor=#FF8000;fontColor=#FFFFFF;strokeColor=none;verticalAlign=middle;spacing=0;" vertex="1" parent="1">
          <mxGeometry x="-1244" y="-2652.0000000000005" width="33" height="19" as="geometry" />
        </mxCell>
        <mxCell id="QF84RngTrCzhq8t4GvT7-44" value="Picker" style="rounded=1;whiteSpace=wrap;html=1;labelBackgroundColor=none;fontSize=11;fillColor=#FF8000;fontColor=#FFFFFF;strokeColor=none;verticalAlign=middle;spacing=0;" vertex="1" parent="1">
          <mxGeometry x="-1028" y="-2652.0000000000005" width="33" height="19" as="geometry" />
        </mxCell>
        <mxCell id="QF84RngTrCzhq8t4GvT7-45" value="" style="endArrow=open;dashed=1;html=1;fontColor=#FFFFFF;endFill=0;entryX=1;entryY=1;entryDx=0;entryDy=0;exitX=0;exitY=0.5;exitDx=0;exitDy=0;" edge="1" parent="1" source="QF84RngTrCzhq8t4GvT7-20" target="QF84RngTrCzhq8t4GvT7-16">
          <mxGeometry width="50" height="50" relative="1" as="geometry">
            <mxPoint x="-980" y="-2707" as="sourcePoint" />
            <mxPoint x="-1010" y="-3229" as="targetPoint" />
          </mxGeometry>
        </mxCell>
        <mxCell id="QF84RngTrCzhq8t4GvT7-46" style="edgeStyle=none;rounded=0;orthogonalLoop=1;jettySize=auto;html=1;exitX=0.5;exitY=1;exitDx=0;exitDy=0;entryX=0.5;entryY=0;entryDx=0;entryDy=0;strokeColor=#000000;" edge="1" parent="1" source="QF84RngTrCzhq8t4GvT7-47" target="QF84RngTrCzhq8t4GvT7-26">
          <mxGeometry relative="1" as="geometry" />
        </mxCell>
        <mxCell id="QF84RngTrCzhq8t4GvT7-47" value="Scan pickwave via RF gun" style="rounded=1;whiteSpace=wrap;html=1;fontColor=#ffffff;strokeColor=#314354;shadow=0;fillColor=#647687;" vertex="1" parent="1">
          <mxGeometry x="-1281" y="-2916.75" width="230" height="50" as="geometry" />
        </mxCell>
        <mxCell id="QF84RngTrCzhq8t4GvT7-48" value="Tote" style="rounded=1;whiteSpace=wrap;html=1;labelBackgroundColor=none;fontSize=11;fillColor=#FF8000;fontColor=#FFFFFF;strokeColor=none;verticalAlign=middle;spacing=0;" vertex="1" parent="1">
          <mxGeometry x="-1206" y="-2939" width="35" height="19" as="geometry" />
        </mxCell>
        <mxCell id="QF84RngTrCzhq8t4GvT7-49" value="Picker" style="rounded=1;whiteSpace=wrap;html=1;labelBackgroundColor=none;fontSize=11;fillColor=#FF8000;fontColor=#FFFFFF;strokeColor=none;verticalAlign=middle;spacing=0;" vertex="1" parent="1">
          <mxGeometry x="-1282" y="-2939" width="35" height="19" as="geometry" />
        </mxCell>
        <mxCell id="QF84RngTrCzhq8t4GvT7-50" value="Trolley" style="rounded=1;whiteSpace=wrap;html=1;labelBackgroundColor=none;fontSize=11;fillColor=#FF8000;fontColor=#FFFFFF;strokeColor=none;verticalAlign=middle;spacing=0;" vertex="1" parent="1">
          <mxGeometry x="-1244" y="-2938.8700000000003" width="35" height="19" as="geometry" />
        </mxCell>
        <mxCell id="QF84RngTrCzhq8t4GvT7-51" value="" style="group" vertex="1" connectable="0" parent="1">
          <mxGeometry x="-1146" y="-3407" width="256" height="114" as="geometry" />
        </mxCell>
        <mxCell id="QF84RngTrCzhq8t4GvT7-52" value="" style="rounded=1;whiteSpace=wrap;html=1;fillColor=#0000FF;fontColor=#ffffff;strokeColor=#314354;" vertex="1" parent="QF84RngTrCzhq8t4GvT7-51">
          <mxGeometry y="63" width="20" height="20" as="geometry" />
        </mxCell>
        <mxCell id="QF84RngTrCzhq8t4GvT7-53" value="" style="rounded=0;whiteSpace=wrap;html=1;fillColor=none;strokeColor=#FF0080;shadow=1;" vertex="1" parent="QF84RngTrCzhq8t4GvT7-51">
          <mxGeometry y="94" width="20" height="20" as="geometry" />
        </mxCell>
        <mxCell id="QF84RngTrCzhq8t4GvT7-54" value="" style="rounded=1;whiteSpace=wrap;html=1;labelBackgroundColor=none;fontSize=8;fillColor=#FF8000;fontColor=#FFFFFF;strokeColor=none;verticalAlign=middle;spacing=0;arcSize=0;" vertex="1" parent="QF84RngTrCzhq8t4GvT7-51">
          <mxGeometry width="20" height="20" as="geometry" />
        </mxCell>
        <mxCell id="QF84RngTrCzhq8t4GvT7-55" value="" style="rounded=1;whiteSpace=wrap;html=1;fillColor=#647687;fontColor=#ffffff;strokeColor=#314354;" vertex="1" parent="QF84RngTrCzhq8t4GvT7-51">
          <mxGeometry y="31" width="20" height="20" as="geometry" />
        </mxCell>
        <mxCell id="QF84RngTrCzhq8t4GvT7-56" value="&lt;span style=&quot;font-size: 12px&quot;&gt;Activities with travel&lt;/span&gt;" style="text;html=1;strokeColor=none;fillColor=none;align=left;verticalAlign=middle;whiteSpace=wrap;rounded=0;dashed=1;fontSize=14;" vertex="1" parent="QF84RngTrCzhq8t4GvT7-51">
          <mxGeometry x="33" y="63" width="210" height="20" as="geometry" />
        </mxCell>
        <mxCell id="QF84RngTrCzhq8t4GvT7-57" value="&lt;span style=&quot;font-size: 12px&quot;&gt;Activities without travel&lt;/span&gt;" style="text;html=1;strokeColor=none;fillColor=none;align=left;verticalAlign=middle;whiteSpace=wrap;rounded=0;dashed=1;fontSize=14;" vertex="1" parent="QF84RngTrCzhq8t4GvT7-51">
          <mxGeometry x="33" y="31" width="223" height="20" as="geometry" />
        </mxCell>
        <mxCell id="QF84RngTrCzhq8t4GvT7-58" value="&lt;span style=&quot;font-size: 12px&quot;&gt;Source&lt;/span&gt;" style="text;html=1;strokeColor=none;fillColor=none;align=left;verticalAlign=middle;whiteSpace=wrap;rounded=0;dashed=1;fontSize=14;" vertex="1" parent="QF84RngTrCzhq8t4GvT7-51">
          <mxGeometry x="33" width="40" height="20" as="geometry" />
        </mxCell>
        <mxCell id="QF84RngTrCzhq8t4GvT7-59" value="&lt;span style=&quot;font-size: 12px&quot;&gt;Dynamic duration&lt;/span&gt;" style="text;html=1;strokeColor=none;fillColor=none;align=left;verticalAlign=middle;whiteSpace=wrap;rounded=0;dashed=1;fontSize=14;" vertex="1" parent="QF84RngTrCzhq8t4GvT7-51">
          <mxGeometry x="33" y="94" width="123" height="20" as="geometry" />
        </mxCell>
        <mxCell id="QF84RngTrCzhq8t4GvT7-60" style="edgeStyle=none;rounded=1;orthogonalLoop=1;jettySize=auto;html=1;exitX=1;exitY=1;exitDx=0;exitDy=0;fontSize=14;strokeColor=#CC00CC;align=left;" edge="1" parent="QF84RngTrCzhq8t4GvT7-51">
          <mxGeometry relative="1" as="geometry">
            <mxPoint x="72.00000000000045" y="114" as="sourcePoint" />
            <mxPoint x="72.00000000000045" y="114" as="targetPoint" />
          </mxGeometry>
        </mxCell>
        <mxCell id="QF84RngTrCzhq8t4GvT7-61" style="edgeStyle=none;rounded=1;orthogonalLoop=1;jettySize=auto;html=1;exitX=1;exitY=0.5;exitDx=0;exitDy=0;fontSize=14;strokeColor=#CC00CC;align=left;" edge="1" parent="QF84RngTrCzhq8t4GvT7-51">
          <mxGeometry relative="1" as="geometry">
            <mxPoint x="40" y="104" as="sourcePoint" />
            <mxPoint x="40" y="104" as="targetPoint" />
          </mxGeometry>
        </mxCell>
      </root>
    </mxGraphModel>
  </diagram>
</mxfile>
